<svg xmlns="http://www.w3.org/2000/svg" width="600" height="400" viewBox="0 0 600 400"><rect width="100%" height="100%" fill="#DDDDDD"/><path fill="#999999" d="M183.07 168.74H192v63.62h-10.43v-41.1q0-2.46.26-5.32l-19.22 36.12q-1.37 2.6-4.18 2.6h-1.68q-2.81 0-4.18-2.6l-19.44-36.25q.13 1.45.22 2.86.08 1.41.08 2.59v41.1h-10.42v-63.62h8.93q.79 0 1.36.04t1.04.22q.46.18.83.57.38.4.73 1.06l19.05 35.33q.75 1.41 1.39 2.9.63 1.5 1.25 3.08.62-1.62 1.28-3.14t1.4-2.93l18.79-35.24q.35-.66.75-1.06.4-.39.86-.57t1.03-.22 1.37-.04m29.96 35.86h20.5q0-2.12-.59-3.99t-1.78-3.27q-1.19-1.41-3.02-2.23-1.82-.81-4.24-.81-4.71 0-7.42 2.68-2.7 2.69-3.45 7.62m27.72 6.55h-27.94q.26 3.48 1.23 6.01t2.55 4.18q1.59 1.65 3.77 2.46 2.17.82 4.81.82t4.56-.62q1.91-.62 3.34-1.36 1.43-.75 2.51-1.37 1.08-.61 2.09-.61 1.36 0 2.02 1.01l3.13 3.96q-1.81 2.11-4.05 3.54t-4.69 2.29q-2.44.86-4.97 1.21t-4.9.35q-4.71 0-8.76-1.56t-7.04-4.62-4.71-7.57q-1.71-4.51-1.71-10.45 0-4.62 1.49-8.69 1.5-4.07 4.29-7.08 2.8-3.02 6.82-4.78 4.03-1.76 9.09-1.76 4.27 0 7.87 1.37 3.61 1.36 6.21 3.98 2.59 2.62 4.07 6.42 1.47 3.81 1.47 8.69 0 2.47-.53 3.32-.52.86-2.02.86m39.03 7.83v-20.24q-1.85-2.24-4.03-3.16-2.18-.93-4.68-.93-2.47 0-4.45.93-1.98.92-3.39 2.79-1.4 1.87-2.15 4.75t-.75 6.8q0 3.96.64 6.71t1.82 4.49q1.19 1.74 2.91 2.51 1.71.77 3.83.77 3.38 0 5.76-1.41t4.49-4.01m0-52h10.87v65.38H284q-2.15 0-2.73-1.98l-.92-4.36q-2.73 3.13-6.27 5.06-3.54 1.94-8.25 1.94-3.7 0-6.78-1.54t-5.3-4.47q-2.22-2.92-3.43-7.23-1.21-4.32-1.21-9.86 0-5.02 1.36-9.33 1.37-4.31 3.92-7.48t6.12-4.95q3.56-1.78 8-1.78 3.79 0 6.47 1.19 2.69 1.19 4.8 3.21zm21.95 20.24h10.92v45.14h-10.92zm12.41-13.16q0 1.41-.57 2.64t-1.52 2.16q-.94.92-2.22 1.47t-2.73.55q-1.41 0-2.66-.55t-2.18-1.47q-.92-.93-1.47-2.16t-.55-2.64q0-1.45.55-2.73.55-1.27 1.47-2.2.93-.92 2.18-1.47t2.66-.55q1.45 0 2.73.55t2.22 1.47q.95.93 1.52 2.2.57 1.28.57 2.73m44.79 18.74-2.86 3.96q-.48.62-.94.97t-1.34.35q-.84 0-1.63-.5-.79-.51-1.89-1.15-1.1-.63-2.62-1.14t-3.76-.51q-2.86 0-5.02 1.04-2.16 1.03-3.59 2.97-1.43 1.93-2.13 4.68t-.7 6.23q0 3.61.77 6.42.77 2.82 2.22 4.73 1.45 1.92 3.52 2.91t4.66.99q2.6 0 4.2-.64 1.61-.64 2.71-1.41t1.91-1.41q.82-.63 1.83-.63 1.32 0 1.98 1.01l3.12 3.96q-1.8 2.11-3.91 3.54t-4.38 2.29-4.66 1.21q-2.4.35-4.78.35-4.18 0-7.87-1.56-3.7-1.56-6.47-4.56-2.77-2.99-4.38-7.32-1.61-4.34-1.61-9.88 0-4.97 1.43-9.22 1.43-4.24 4.21-7.35 2.77-3.1 6.86-4.86t9.42-1.76q5.06 0 8.86 1.63 3.81 1.63 6.84 4.66m7.57-5.58h10.91v45.14H366.5zm12.41-13.16q0 1.41-.57 2.64t-1.52 2.16q-.95.92-2.22 1.47-1.28.55-2.73.55-1.41 0-2.66-.55-1.26-.55-2.18-1.47-.92-.93-1.47-2.16t-.55-2.64q0-1.45.55-2.73.55-1.27 1.47-2.2.92-.92 2.18-1.47 1.25-.55 2.66-.55 1.45 0 2.73.55 1.27.55 2.22 1.47.95.93 1.52 2.2.57 1.28.57 2.73m19.01 15.14.75 3.56q1.36-1.36 2.88-2.53t3.21-1.98 3.63-1.28q1.94-.46 4.22-.46 3.7 0 6.56 1.26 2.86 1.25 4.77 3.52 1.92 2.26 2.91 5.41.99 3.14.99 6.93v28.73h-10.87v-28.73q0-4.14-1.89-6.4-1.89-2.27-5.77-2.27-2.81 0-5.28 1.28-2.46 1.27-4.66 3.47v32.65H388.5v-45.14h6.65q2.11 0 2.77 1.98m48.79 15.4h20.51q0-2.12-.6-3.99-.59-1.87-1.78-3.27-1.19-1.41-3.01-2.23-1.83-.81-4.25-.81-4.71 0-7.41 2.68-2.71 2.69-3.46 7.62m27.72 6.55h-27.94q.27 3.48 1.24 6.01.96 2.53 2.55 4.18 1.58 1.65 3.76 2.46 2.18.82 4.82.82t4.55-.62q1.92-.62 3.35-1.36 1.43-.75 2.5-1.37 1.08-.61 2.09-.61 1.37 0 2.03 1.01l3.12 3.96q-1.8 2.11-4.05 3.54-2.24 1.43-4.68 2.29t-4.97 1.21-4.91.35q-4.71 0-8.76-1.56-4.04-1.56-7.04-4.62-2.99-3.06-4.7-7.57-1.72-4.51-1.72-10.45 0-4.62 1.5-8.69 1.49-4.07 4.29-7.08 2.79-3.02 6.82-4.78 4.02-1.76 9.08-1.76 4.27 0 7.88 1.37 3.61 1.36 6.2 3.98 2.6 2.62 4.07 6.42 1.48 3.81 1.48 8.69 0 2.47-.53 3.32-.53.86-2.03.86"/></svg>